<?xml version="1.0" encoding="UTF-8"?>
<svg xmlns="http://www.w3.org/2000/svg" version="1.1" viewBox="0 0 266.4 154.4">
  <defs>
    <style>
      .cls-1 {
        fill: #fff;
      }
    </style>
  </defs>
  <!-- Generator: Adobe Illustrator 28.7.1, SVG Export Plug-In . SVG Version: 1.2.0 Build 142)  -->
  <g>
    <g id="Ebene_1">
      <g id="Layer_2">
        <g id="Icon">
          <path id="_47" class="cls-1" d="M262.1,21.8c-2.8-6.5-7-11.7-12.6-15.8C243.9,2,239.9-.1,237.3-.1s-4.7.9-6.5,2.7l-94.9,92.2L35.1,4.1c-1.8-1.8-4-2.7-6.5-2.7s-6.5,2-11.9,6.1c-5.4,4.1-9.5,9.3-12.4,15.8C1.4,29.6,0,34.4,0,37.6s.9,5.8,2.7,7.9h0l124.6,104.4c3,3,6.2,4.5,9.5,4.5s7-2.1,11.2-6.3l115.2-104c2.1-2.1,3.2-4.7,3.2-7.9s-1.4-8-4.3-14.4ZM262.1,21.8c-2.8-6.5-7-11.7-12.6-15.8C243.9,2,239.9-.1,237.3-.1s-4.7.9-6.5,2.7l-94.9,92.2L35.1,4.1c-1.8-1.8-4-2.7-6.5-2.7s-6.5,2-11.9,6.1c-5.4,4.1-9.5,9.3-12.4,15.8C1.4,29.6,0,34.4,0,37.6s.9,5.8,2.7,7.9h0l124.6,104.4c3,3,6.2,4.5,9.5,4.5s7-2.1,11.2-6.3l115.2-104c2.1-2.1,3.2-4.7,3.2-7.9s-1.4-8-4.3-14.4ZM262.1,21.8c-2.8-6.5-7-11.7-12.6-15.8C243.9,2,239.9-.1,237.3-.1s-4.7.9-6.5,2.7l-94.9,92.2L35.1,4.1c-1.8-1.8-4-2.7-6.5-2.7s-6.5,2-11.9,6.1c-5.4,4.1-9.5,9.3-12.4,15.8C1.4,29.6,0,34.4,0,37.6s.9,5.8,2.7,7.9h0l124.6,104.4c3,3,6.2,4.5,9.5,4.5s7-2.1,11.2-6.3l115.2-104c2.1-2.1,3.2-4.7,3.2-7.9s-1.4-8-4.3-14.4Z"/>
        </g>
      </g>
    </g>
  </g>
</svg>